<svg xmlns="http://www.w3.org/2000/svg" width="16" height="16" viewBox="0 0 16 16"><g fill="none" fill-rule="evenodd"><rect width="16" height="16" fill="#FFF" opacity="0"/><path fill="#FFF" fill-rule="nonzero" d="M7.99998331,14.5312463 C11.7451602,14.5312463 14.7812171,11.4951894 14.7812171,7.75001252 C14.7812171,4.00483559 11.7451602,0.968778685 7.99998331,0.968778685 C4.25480639,0.968778685 1.21874948,4.00483559 1.21874948,7.75001252 C1.21874948,11.4951894 4.25480639,14.5312463 7.99998331,14.5312463 Z M7.70900271,11.9189631 L6.9648753,11.7335388 L7.26880677,10.5161306 C7.10469126,10.4754356 6.83902493,10.4064889 6.67581731,10.362269 L6.37084443,11.5854183 L5.62759822,11.4000206 L5.93553511,10.1637336 C5.76175317,10.1192467 5.58522085,10.0719827 5.40505694,10.0268282 L4.43670598,9.78548816 L4.80613945,8.93380181 C4.80613945,8.93380181 5.3544017,9.07959919 5.34697831,9.06881125 C5.55763684,9.12090845 5.6510967,8.98360256 5.68799999,8.8920386 L6.17460543,6.94139781 C6.20194911,6.9479667 6.22843831,6.95474922 6.25324523,6.96089086 C6.2235784,6.94903481 6.19666196,6.94139781 6.17588717,6.93611065 L6.52305049,5.54361214 C6.53218286,5.38555816 6.47770911,5.18614152 6.17631441,5.11091969 C6.18798354,5.10309576 5.63587609,4.97657781 5.63587609,4.97657781 L5.83382408,4.18190197 L6.86001334,4.43811551 L6.85918555,4.44193401 C7.01344773,4.48027925 7.1724096,4.5167286 7.33433548,4.55360519 L7.63928166,3.33173768 L8.38298182,3.51716204 L8.08415059,4.71507713 C8.28378085,4.76063213 8.48469285,4.80661438 8.68031769,4.85534702 L8.97703939,3.66525587 L9.7211401,3.85065353 L9.41635414,5.07297498 C10.3558661,5.39655972 11.0429562,5.8816431 10.9079468,6.783958 C10.8102679,7.44450559 10.4440121,7.76427182 9.95783387,7.87631684 C10.625431,8.22385401 10.9651976,8.75681554 10.6415595,9.68075971 C10.2399491,10.8282599 9.28580407,10.925111 8.0169396,10.6849993 L7.70900271,11.9189631 Z M9.43795672,6.77060659 C9.65646587,5.8939264 8.30370115,5.69854188 7.88361243,5.59389354 L7.51316425,7.07937126 C7.93319956,7.18404631 9.22815268,7.61105106 9.43795672,6.77060659 Z M9.20780514,9.16774519 C9.44813049,8.20420073 7.83063404,7.95498334 7.32627123,7.82910626 L6.91763802,9.46697696 C6.98343144,9.48331212 7.06711206,9.50601431 7.16340462,9.53109431 L7.37124261,9.58324274 C8.03582606,9.74210734 9.02783279,9.89083194 9.20780514,9.16774519 Z"/></g></svg>