<svg xmlns="http://www.w3.org/2000/svg" xmlns:xlink="http://www.w3.org/1999/xlink" width="16" height="16" viewBox="0 0 16 16"><defs><path id="a" d="M13.492945,8.08600016 C13.4764287,8.18673806 13.4309128,8.28409285 13.3563973,8.36618432 L13.3563973,8.36618432 L8.44677997,15.8036714 C8.32918245,15.9334906 8.1651421,15.9985326 8.00100696,15.9987976 L8.00117302,9.00055861 Z"/></defs><g fill="none" fill-rule="evenodd"><rect width="16" height="16" fill="#FFF" opacity="0"/><path fill="#FFF" fill-rule="nonzero" d="M8.44677997,15.8036714 L13.3563973,8.36618432 C13.5478676,8.15524732 13.5478676,7.84353389 13.3563973,7.63259689 L8.44677997,0.195109856 C8.21110396,-0.0650366186 7.78889604,-0.0650366186 7.55322003,0.195109856 L2.64360271,7.63259689 C2.45213243,7.84353389 2.45213243,8.15524732 2.64360271,8.36618432 L7.55322003,15.8036714 C7.78889604,16.0638407 8.21110396,16.0638407 8.44677997,15.8036714 Z"/><path fill="#BBEEF5" fill-rule="nonzero" d="M8.00100696 8.12619139e-7C8.1651421.000265726459 8.32918245.0653020742 8.44677997.195109856L8.44677997.195109856 13.3563973 7.63259689C13.4731053 7.7611706 13.5186756 7.92718621 13.4931081 8.08499934L8.00117302 9ZM2.50689187 8.08499934 8.00117302 9.00055861 8.00199358 15.9987952C7.83685884 15.9993229 7.67153415 15.9342816 7.55322003 15.8036714L7.55322003 15.8036714 2.64360271 8.36618432C2.56884047 8.28382103 2.52327019 8.18609316 2.50689187 8.08499934Z"/><use xlink:href="#a" fill="#2EBEEF" fill-rule="nonzero"/></g></svg>