<svg xmlns="http://www.w3.org/2000/svg" width="16" height="16" viewBox="0 0 16 16"><g fill="none" fill-rule="evenodd"><rect width="16" height="16" fill="#FFF" opacity="0"/><path fill="#FFF" fill-rule="nonzero" d="M5.37617689,12.5734492 C5.43086426,12.5734492 5.44998348,12.5543033 5.45820795,12.50509 C5.57030637,11.8132734 5.95039427,9.36601361 6.04609717,8.84103622 C6.2046852,7.98790792 6.91834469,8.19845963 8.10507129,8.17931371 C9.95349371,8.1574441 11.3480216,7.4218883 11.9359109,5.71018431 C12.5265505,4.04766691 12.3761602,2.51097319 10.7327887,1.87384397 C10.0610077,1.61307831 9.67388902,1.55736544 8.43067308,1.55163097 L7.9221095,1.55163097 C7.24603821,1.55366386 6.36017219,1.56214199 5.15467702,1.56214199 C4.88399056,1.56214199 4.64881885,1.76174554 4.60780333,2.02423424 L3.00547408,12.1933613 C2.97813039,12.3929649 3.12852066,12.5734492 3.33632198,12.5734492 L5.37617689,12.5734492 Z M7.83710852,13.9515549 C8.07225353,13.9515549 8.26638301,13.779295 8.31287262,13.54415 L8.3144838,13.5315552 L8.3144838,13.5315552 L8.31690107,13.5119692 L8.31690107,13.5119692 L8.31890576,13.4956559 C8.32818822,13.4220511 8.34902823,13.2947974 8.70663236,11.0476502 C8.83240263,10.4460892 9.09764171,10.509001 9.50779698,10.509001 C11.4491986,10.509001 12.9640494,9.72148151 13.4152202,7.43828383 C13.5929542,6.48672894 13.5409905,5.48596076 12.7644192,4.9062693 C12.7152059,4.87072785 12.69606,4.857056 12.6823881,4.94181075 C12.6277007,5.25353943 12.542946,5.55704365 12.441769,5.86057458 C11.350772,8.97228057 8.32654446,8.70156741 6.84998548,8.70156741 C6.68319968,8.70156741 6.57382494,8.79179623 6.55195534,8.95860873 C5.93397204,12.7976461 5.81092546,13.5988374 5.81092546,13.5988374 C5.78358177,13.7929669 5.90662835,13.9515549 6.10078454,13.9515549 L7.83710852,13.9515549 Z"/></g></svg>