<svg xmlns="http://www.w3.org/2000/svg" width="16" height="16" viewBox="0 0 16 16"><g fill="none" fill-rule="evenodd"><rect width="16" height="16" fill="#FFF" opacity="0"/><path fill="#2DBE33" fill-rule="nonzero" d="M2.68454703,8.76262474 L7.99998323,3.53193266 L13.315453,8.76259157 C13.6376148,9.07961628 14.1585282,9.07901931 14.4799521,8.76123181 L15.2585547,7.99143785 C15.5804818,7.67315287 15.5804818,7.1571047 15.2585547,6.83878656 L8.58292046,0.238709588 C8.26095984,-0.0795753901 7.73900661,-0.0795753901 7.41707954,0.238742753 L0.741445301,6.83881972 C0.419518233,7.1571047 0.419518233,7.67315287 0.741445301,7.99147101 L1.5200479,8.76126497 C1.8414718,9.07905248 2.36238515,9.07964945 2.68454703,8.76262474 Z"/><path fill="#2DBE33" fill-rule="nonzero" d="M2.68454703,15.7626247 L7.99998323,10.5319327 L13.315453,15.7625916 C13.6376148,16.0796163 14.1585282,16.0790193 14.4799521,15.7612318 L15.2585547,14.9914378 C15.5804818,14.6731529 15.5804818,14.1571047 15.2585547,13.8387866 L8.58292046,7.23870959 C8.26095984,6.92042461 7.73900661,6.92042461 7.41707954,7.23874275 L0.741445301,13.8388197 C0.419518233,14.1571047 0.419518233,14.6731529 0.741445301,14.991471 L1.5200479,15.761265 C1.8414718,16.0790525 2.36238515,16.0796494 2.68454703,15.7626247 Z" opacity=".4"/></g></svg>