<svg xmlns="http://www.w3.org/2000/svg" width="16" height="16" viewBox="0 0 16 16"><g fill="none" fill-rule="evenodd"><rect width="16" height="16" fill="#FFF" opacity="0"/><path fill="#2DBE33" fill-rule="nonzero" d="M6.18454703,12.2626247 L11.4999832,7.03193266 L16.815453,12.2625916 C17.1376148,12.5796163 17.6585282,12.5790193 17.9799521,12.2612318 L18.7585547,11.4914378 C19.0804818,11.1731529 19.0804818,10.6571047 18.7585547,10.3387866 L12.0829205,3.73870959 C11.7609598,3.42042461 11.2390066,3.42042461 10.9170795,3.73874275 L4.2414453,10.3388197 C3.91951823,10.6571047 3.91951823,11.1731529 4.2414453,11.491471 L5.0200479,12.261265 C5.3414718,12.5790525 5.86238515,12.5796494 6.18454703,12.2626247 Z" transform="rotate(90 11.5 8)"/><path fill="#2DBE33" fill-rule="nonzero" d="M-0.815452969,12.2626247 L4.49998323,7.03193266 L9.81545297,12.2625916 C10.1376148,12.5796163 10.6585282,12.5790193 10.9799521,12.2612318 L11.7585547,11.4914378 C12.0804818,11.1731529 12.0804818,10.6571047 11.7585547,10.3387866 L5.08292046,3.73870959 C4.76095984,3.42042461 4.23900661,3.42042461 3.91707954,3.73874275 L-2.7585547,10.3388197 C-3.08048177,10.6571047 -3.08048177,11.1731529 -2.7585547,11.491471 L-1.9799521,12.261265 C-1.6585282,12.5790525 -1.13761485,12.5796494 -0.815452969,12.2626247 Z" opacity=".4" transform="rotate(90 4.5 8)"/></g></svg>